<svg width="39" height="29" viewBox="0 0 39 29" fill="none" xmlns="http://www.w3.org/2000/svg">
<path d="M28.1141 19.031L29.1597 20.1065L28.1141 19.031ZM10.907 19.031L9.86143 20.1065L10.907 19.031ZM36.6971 9.25281L35.6515 10.3283L36.6971 9.25281ZM36.6971 10.6868L37.7427 11.7623L36.6971 10.6868ZM28.134 2.28332L27.0884 1.2078L28.134 2.28332ZM29.5281 2.28332L28.4825 3.35883L29.5281 2.28332ZM2.32406 10.6868L1.27847 11.7623L2.32406 10.6868ZM18.8135 9.98916L19.8591 8.91365L18.8135 9.98916ZM20.2076 9.98916L19.162 8.91365L20.2076 9.98916ZM20.2076 26.7175L21.2532 27.793L20.2076 26.7175ZM18.8135 26.7175L17.7679 27.793L18.8135 26.7175ZM21.2532 27.793L29.1597 20.1065L27.0685 17.9555L19.162 25.642L21.2532 27.793ZM9.86143 20.1065L17.7679 27.793L19.8591 25.642L11.9526 17.9555L9.86143 20.1065ZM11.9526 17.9555L3.36965 9.61131L1.27847 11.7623L9.86143 20.1065L11.9526 17.9555ZM3.36966 10.3283L10.5386 3.35883L8.44741 1.2078L1.27847 8.17729L3.36966 10.3283ZM9.84154 3.35883L17.7679 11.0647L19.8591 8.91365L11.9327 1.2078L9.84154 3.35883ZM27.0884 1.2078L19.162 8.91365L21.2532 11.0647L29.1796 3.35883L27.0884 1.2078ZM37.7427 8.17729L30.5737 1.2078L28.4825 3.35883L35.6515 10.3283L37.7427 8.17729ZM29.1597 20.1065L37.7427 11.7623L35.6515 9.61131L27.0685 17.9555L29.1597 20.1065ZM35.6515 10.3283C35.4495 10.132 35.4495 9.80765 35.6515 9.61131L37.7427 11.7623C38.7525 10.7806 38.7524 9.15899 37.7427 8.17729L35.6515 10.3283ZM29.1796 3.35883C28.9855 3.54749 28.6766 3.54749 28.4825 3.35883L30.5737 1.2078C29.6034 0.264503 28.0587 0.264505 27.0884 1.2078L29.1796 3.35883ZM10.5386 3.35883C10.3445 3.54749 10.0356 3.54749 9.84154 3.35883L11.9327 1.2078C10.9624 0.264503 9.4177 0.264501 8.44741 1.2078L10.5386 3.35883ZM3.36965 9.61131C3.57161 9.80765 3.57161 10.132 3.36966 10.3283L1.27847 8.17729C0.268678 9.15898 0.268674 10.7806 1.27847 11.7623L3.36965 9.61131ZM17.7679 11.0647C18.7382 12.008 20.2829 12.008 21.2532 11.0647L19.162 8.91365C19.3561 8.72499 19.665 8.72499 19.8591 8.91365L17.7679 11.0647ZM19.162 25.642C19.3561 25.4533 19.665 25.4533 19.8591 25.642L17.7679 27.793C18.7382 28.7363 20.2829 28.7363 21.2532 27.793L19.162 25.642Z" fill="#808080"/>
</svg>
