<svg width="39" height="29" viewBox="0 0 39 29" fill="none" xmlns="http://www.w3.org/2000/svg">
<path d="M10.8842 9.97189L11.9301 11.0471L10.8842 9.97189ZM28.0873 9.97189L27.0414 11.0471L28.0873 9.97189ZM2.30274 19.7529L1.25684 20.8281L2.30274 19.7529ZM2.30274 18.3193L3.34863 19.3945L2.30274 18.3193ZM9.47011 26.7248L10.516 25.6496L9.47011 26.7248ZM29.5013 26.7248L30.5472 27.8L29.5013 26.7248ZM28.1068 26.7248L29.1527 25.6496L28.1068 26.7248ZM36.6687 18.3193L35.6228 19.3945L36.6687 18.3193ZM18.7884 19.0171L19.8343 20.0923L18.7884 19.0171ZM20.183 2.28319L19.1371 3.35841L20.183 2.28319ZM17.7426 1.20796L9.83827 8.89667L11.9301 11.0471L19.8343 3.35841L17.7426 1.20796ZM29.1332 8.89667L21.2289 1.20796L19.1371 3.35841L27.0414 11.0471L29.1332 8.89667ZM27.0414 11.0471L35.6228 19.3945L37.7146 17.244L29.1332 8.89667L27.0414 11.0471ZM35.6228 18.6777L28.4554 25.6496L30.5472 27.8L37.7146 20.8281L35.6228 18.6777ZM29.1527 25.6496L21.2289 17.9419L19.1371 20.0923L27.0609 27.8L29.1527 25.6496ZM11.9105 27.8L19.8343 20.0923L17.7426 17.9419L9.81874 25.6496L11.9105 27.8ZM1.25684 20.8281L8.42421 27.8L10.516 25.6496L3.34863 18.6777L1.25684 20.8281ZM9.83827 8.89667L1.25684 17.244L3.34863 19.3945L11.9301 11.0471L9.83827 8.89667ZM3.34863 18.6777C3.55046 18.874 3.55046 19.1982 3.34863 19.3945L1.25684 17.244C0.24772 18.2256 0.24772 19.8465 1.25684 20.8281L3.34863 18.6777ZM9.81874 25.6496C10.0128 25.4608 10.3219 25.4608 10.516 25.6496L8.42421 27.8C9.39463 28.744 10.9401 28.744 11.9105 27.8L9.81874 25.6496ZM28.4554 25.6496C28.6495 25.4608 28.9586 25.4608 29.1527 25.6496L27.0609 27.8C28.0313 28.744 29.5768 28.744 30.5472 27.8L28.4554 25.6496ZM35.6228 19.3945C35.421 19.1982 35.421 18.874 35.6228 18.6777L37.7146 20.8281C38.7237 19.8465 38.7237 18.2256 37.7146 17.244L35.6228 19.3945ZM21.2289 17.9419C20.2585 16.9979 18.713 16.9979 17.7426 17.9419L19.8343 20.0923C19.6403 20.2811 19.3312 20.2811 19.1371 20.0923L21.2289 17.9419ZM19.8343 3.35841C19.6403 3.5472 19.3312 3.5472 19.1371 3.35841L21.2289 1.20796C20.2585 0.264011 18.713 0.264013 17.7426 1.20796L19.8343 3.35841Z" fill="#808080"/>
</svg>
