<svg width="40" height="40" viewBox="0 0 40 40" fill="none" xmlns="http://www.w3.org/2000/svg">
<path d="M37.2274 9.6873L38.2937 8.63228L37.2274 9.6873ZM37.2274 11.094L36.1611 10.039L37.2274 11.094ZM28.4931 2.29666L27.4269 1.24164L28.4931 2.29666ZM29.9148 2.29666L28.8486 3.35167L29.9148 2.29666ZM19.9073 10.9741L20.9736 12.0291L19.9073 10.9741ZM19.7161 10.9741L20.7824 12.0291L19.7161 10.9741ZM19.6117 10.9771L18.5454 12.0321L19.6117 10.9771ZM19.7132 10.9771L20.7794 12.0321L19.7132 10.9771ZM2.28866 9.6873L1.22238 8.63228L2.28866 9.6873ZM10.2472 19.1374L11.3134 18.0824L10.2472 19.1374ZM2.29453 29.9883L1.22826 31.0433L2.29453 29.9883ZM2.29453 28.5816L3.36081 29.6367L2.29453 28.5816ZM9.60711 37.379L8.54083 38.434L9.60711 37.379ZM19.6146 28.7015L18.5483 27.6465L19.6146 28.7015ZM19.8059 28.7015L20.8721 29.7565L19.8059 28.7015ZM19.9103 28.6986L18.844 29.7536L19.9103 28.6986ZM19.8088 28.6986L20.8751 29.7536L19.8088 28.6986ZM29.9207 37.379L30.987 38.434L29.9207 37.379ZM28.499 37.379L29.5653 36.324L28.499 37.379ZM37.2333 28.5816L36.167 29.6367L37.2333 28.5816ZM37.2333 29.9883L36.167 28.9333L37.2333 29.9883ZM29.2748 20.5382L30.3411 19.4832L29.2748 20.5382ZM29.2748 19.1315L30.3411 20.1865L29.2748 19.1315ZM28.2085 21.5932L36.167 29.6367L38.2996 27.5266L30.3411 19.4832L28.2085 21.5932ZM36.167 28.9333L28.8544 36.324L30.987 38.434L38.2996 31.0433L36.167 28.9333ZM29.5653 36.324L20.9766 27.6435L18.844 29.7536L27.4327 38.434L29.5653 36.324ZM18.7425 27.6435L18.7396 27.6465L20.8721 29.7565L20.8751 29.7536L18.7425 27.6435ZM18.5483 27.6465L9.96254 36.324L12.0951 38.434L20.6809 29.7565L18.5483 27.6465ZM10.6734 36.324L3.36081 28.9333L1.22826 31.0433L8.54083 38.434L10.6734 36.324ZM3.36081 29.6367L11.3134 21.5991L9.18088 19.4891L1.22826 27.5266L3.36081 29.6367ZM11.3134 18.0824L3.35494 10.039L1.22238 12.149L9.18088 20.1925L11.3134 18.0824ZM3.35494 10.7423L10.6675 3.35167L8.53496 1.24165L1.22238 8.63228L3.35494 10.7423ZM9.95666 3.35167L18.5454 12.0321L20.6779 9.92206L12.0892 1.24164L9.95666 3.35167ZM20.7794 12.0321L20.7824 12.0291L18.6498 9.91909L18.6469 9.92206L20.7794 12.0321ZM20.9736 12.0291L29.5594 3.35167L27.4269 1.24164L18.8411 9.91909L20.9736 12.0291ZM28.8486 3.35167L36.1611 10.7423L38.2937 8.63228L30.9811 1.24164L28.8486 3.35167ZM36.1611 10.039L28.2085 18.0765L30.3411 20.1865L38.2937 12.149L36.1611 10.039ZM36.1611 10.7423C35.9684 10.5475 35.9684 10.2338 36.1611 10.039L38.2937 12.149C39.2575 11.1749 39.2575 9.6064 38.2937 8.63228L36.1611 10.7423ZM29.5594 3.35167C29.3637 3.54944 29.0442 3.54944 28.8486 3.35167L30.9811 1.24164C30.0027 0.252784 28.4053 0.252787 27.4269 1.24164L29.5594 3.35167ZM18.7454 12.0291C19.3588 12.649 20.3603 12.649 20.9736 12.0291L18.8411 9.91909C19.4018 9.35238 20.3173 9.35238 20.878 9.91909L18.7454 12.0291ZM20.7824 12.0291C20.2217 12.5958 19.3062 12.5958 18.7454 12.0291L20.878 9.91909C20.2646 9.29917 19.2632 9.29917 18.6498 9.91909L20.7824 12.0291ZM18.5454 12.0321C19.1604 12.6536 20.1644 12.6536 20.7794 12.0321L18.6469 9.92206C19.206 9.35697 20.1188 9.35699 20.6779 9.92206L18.5454 12.0321ZM10.6675 3.35167C10.4718 3.54944 10.1523 3.54944 9.95666 3.35167L12.0892 1.24164C11.1108 0.252787 9.51337 0.252788 8.53496 1.24165L10.6675 3.35167ZM3.35494 10.039C3.5477 10.2338 3.5477 10.5475 3.35494 10.7423L1.22238 8.63228C0.258553 9.6064 0.258555 11.1749 1.22238 12.149L3.35494 10.039ZM11.3134 21.5991C12.2773 20.625 12.2773 19.0565 11.3134 18.0824L9.18088 20.1925C8.98812 19.9976 8.98812 19.6839 9.18088 19.4891L11.3134 21.5991ZM3.36081 28.9333C3.55358 29.1281 3.55358 29.4418 3.36081 29.6367L1.22826 27.5266C0.264429 28.5008 0.264427 30.0692 1.22826 31.0433L3.36081 28.9333ZM9.96254 36.324C10.1582 36.1262 10.4777 36.1262 10.6734 36.324L8.54083 38.434C9.51925 39.4228 11.1167 39.4228 12.0951 38.434L9.96254 36.324ZM20.7765 27.6465C20.1631 27.0266 19.1617 27.0266 18.5483 27.6465L20.6809 29.7565C20.1202 30.3233 19.2047 30.3232 18.6439 29.7565L20.7765 27.6465ZM18.7396 27.6465C19.3003 27.0798 20.2158 27.0798 20.7765 27.6465L18.6439 29.7565C19.2573 30.3765 20.2588 30.3765 20.8721 29.7565L18.7396 27.6465ZM20.9766 27.6435C20.3616 27.022 19.3575 27.022 18.7425 27.6435L20.8751 29.7536C20.316 30.3186 19.4031 30.3187 18.844 29.7536L20.9766 27.6435ZM28.8544 36.324C29.0501 36.1262 29.3696 36.1262 29.5653 36.324L27.4327 38.434C28.4111 39.4228 30.0086 39.4228 30.987 38.434L28.8544 36.324ZM36.167 29.6367C35.9742 29.4418 35.9742 29.1281 36.167 28.9333L38.2996 31.0433C39.2634 30.0692 39.2634 28.5008 38.2996 27.5266L36.167 29.6367ZM30.3411 19.4832C30.5338 19.678 30.5338 19.9917 30.3411 20.1865L28.2085 18.0765C27.2447 19.0506 27.2447 20.6191 28.2085 21.5932L30.3411 19.4832Z" fill="#808080"/>
</svg>
