<svg width="29" height="29" viewBox="0 0 29 29" fill="none" xmlns="http://www.w3.org/2000/svg">
<path d="M26.9445 24.3595L4.80814 2.22318C4.08675 1.50179 2.91715 1.50179 2.19577 2.22318L2.05828 2.36067C1.33689 3.08205 1.33689 4.25165 2.05828 4.97304L24.1946 27.1094C24.916 27.8308 26.0856 27.8308 26.807 27.1094L26.9445 26.9719C27.6659 26.2505 27.6659 25.0809 26.9445 24.3595Z" />
<path d="M24.1945 2.22346L2.05814 24.3598C1.33675 25.0812 1.33675 26.2508 2.05814 26.9722L2.19563 27.1097C2.91702 27.8311 4.08661 27.8311 4.808 27.1097L26.9444 4.97332C27.6658 4.25194 27.6658 3.08234 26.9444 2.36096L26.8069 2.22346C26.0855 1.50208 24.9159 1.50208 24.1945 2.22346Z" />
</svg>
