<svg width="51" height="50" viewBox="0 0 51 50" fill="none" xmlns="http://www.w3.org/2000/svg">
<path d="M48.0862 30C47.4231 30 46.7872 30.2634 46.3184 30.7322C45.8496 31.2011 45.5862 31.837 45.5862 32.5V42.5C45.5862 43.163 45.3228 43.7989 44.8539 44.2678C44.3851 44.7366 43.7492 45 43.0862 45H8.08618C7.42314 45 6.78725 44.7366 6.31841 44.2678C5.84957 43.7989 5.58618 43.163 5.58618 42.5V32.5C5.58618 31.837 5.32279 31.2011 4.85395 30.7322C4.38511 30.2634 3.74922 30 3.08618 30C2.42314 30 1.78726 30.2634 1.31841 30.7322C0.849574 31.2011 0.586182 31.837 0.586182 32.5V42.5C0.586182 44.4891 1.37636 46.3968 2.78288 47.8033C4.1894 49.2098 6.09706 50 8.08618 50H43.0862C45.0753 50 46.983 49.2098 48.3895 47.8033C49.796 46.3968 50.5862 44.4891 50.5862 42.5V32.5C50.5862 31.837 50.3228 31.2011 49.8539 30.7322C49.3851 30.2634 48.7492 30 48.0862 30ZM23.8112 34.275C24.0489 34.5026 24.3293 34.681 24.6362 34.8C24.9354 34.9323 25.259 35.0006 25.5862 35.0006C25.9134 35.0006 26.2369 34.9323 26.5362 34.8C26.8431 34.681 27.1234 34.5026 27.3612 34.275L37.3612 24.275C37.8319 23.8042 38.0964 23.1658 38.0964 22.5C38.0964 21.8342 37.8319 21.1958 37.3612 20.725C36.8904 20.2542 36.2519 19.9898 35.5862 19.9898C34.9204 19.9898 34.2819 20.2542 33.8112 20.725L28.0862 26.475V2.5C28.0862 1.83696 27.8228 1.20107 27.3539 0.732233C26.8851 0.263392 26.2492 0 25.5862 0C24.9231 0 24.2873 0.263392 23.8184 0.732233C23.3496 1.20107 23.0862 1.83696 23.0862 2.5V26.475L17.3612 20.725C17.1281 20.4919 16.8514 20.307 16.5468 20.1809C16.2422 20.0547 15.9158 19.9898 15.5862 19.9898C15.2565 19.9898 14.9301 20.0547 14.6256 20.1809C14.321 20.307 14.0443 20.4919 13.8112 20.725C13.5781 20.9581 13.3932 21.2348 13.267 21.5394C13.1409 21.8439 13.0759 22.1704 13.0759 22.5C13.0759 22.8296 13.1409 23.1561 13.267 23.4606C13.3932 23.7652 13.5781 24.0419 13.8112 24.275L23.8112 34.275Z" fill="white"/>
</svg>
