<svg width="22" height="19" viewBox="0 0 22 19" fill="none" xmlns="http://www.w3.org/2000/svg">
<path d="M21.5601 14.2999L13.8901 1.57994C13.58 1.09475 13.1527 0.695462 12.6476 0.418876C12.1425 0.142291 11.5759 -0.00268555 11.0001 -0.00268555C10.4243 -0.00268555 9.85769 0.142291 9.35262 0.418876C8.84755 0.695462 8.42024 1.09475 8.1101 1.57994L0.4401 14.2999C0.169154 14.7516 0.021889 15.2666 0.013112 15.7932C0.00433502 16.3199 0.134355 16.8395 0.3901 17.2999C0.685779 17.8182 1.11376 18.2487 1.6303 18.5474C2.14684 18.846 2.73343 19.0022 3.3301 18.9999H18.6701C19.2629 19.0063 19.8468 18.8561 20.363 18.5647C20.8792 18.2732 21.3093 17.8508 21.6101 17.3399C21.8734 16.8747 22.0075 16.3476 21.9987 15.8131C21.9899 15.2787 21.8385 14.7563 21.5601 14.2999ZM11.0001 14.9999C10.8023 14.9999 10.609 14.9413 10.4445 14.8314C10.2801 14.7215 10.1519 14.5653 10.0762 14.3826C10.0005 14.1999 9.98073 13.9988 10.0193 13.8048C10.0579 13.6109 10.1531 13.4327 10.293 13.2928C10.4328 13.153 10.611 13.0577 10.805 13.0192C10.999 12.9806 11.2001 13.0004 11.3828 13.0761C11.5655 13.1517 11.7217 13.2799 11.8316 13.4444C11.9415 13.6088 12.0001 13.8022 12.0001 13.9999C12.0001 14.2652 11.8947 14.5195 11.7072 14.707C11.5197 14.8946 11.2653 14.9999 11.0001 14.9999ZM12.0001 10.9999C12.0001 11.2652 11.8947 11.5195 11.7072 11.707C11.5197 11.8946 11.2653 11.9999 11.0001 11.9999C10.7349 11.9999 10.4805 11.8946 10.293 11.707C10.1055 11.5195 10.0001 11.2652 10.0001 10.9999V6.99994C10.0001 6.73472 10.1055 6.48037 10.293 6.29283C10.4805 6.1053 10.7349 5.99994 11.0001 5.99994C11.2653 5.99994 11.5197 6.1053 11.7072 6.29283C11.8947 6.48037 12.0001 6.73472 12.0001 6.99994V10.9999Z" fill="#E1670F"/>
</svg>
