<svg width="35" height="24" viewBox="0 0 35 24" fill="none" xmlns="http://www.w3.org/2000/svg">
<path d="M33.1528 9.72168H1.84722C0.82703 9.72168 0 10.5487 0 11.5689V11.7633C0 12.7835 0.82703 13.6106 1.84722 13.6106H33.1528C34.173 13.6106 35 12.7835 35 11.7633V11.5689C35 10.5487 34.173 9.72168 33.1528 9.72168Z"/>
<path d="M33.1528 19.4434H1.84722C0.82703 19.4434 0 20.2704 0 21.2906V21.485C0 22.5052 0.82703 23.3322 1.84722 23.3322H33.1528C34.173 23.3322 35 22.5052 35 21.485V21.2906C35 20.2704 34.173 19.4434 33.1528 19.4434Z" />
<path d="M33.1528 0H1.84722C0.82703 0 0 0.827029 0 1.84722V2.04167C0 3.06186 0.82703 3.88889 1.84722 3.88889H33.1528C34.173 3.88889 35 3.06186 35 2.04167V1.84722C35 0.827029 34.173 0 33.1528 0Z" />
</svg>
