<svg width="19" height="20" viewBox="0 0 19 20" fill="none" xmlns="http://www.w3.org/2000/svg">
<path d="M14.6008 19.9998C10.73 19.9945 7.01911 18.3704 4.28202 15.4835C1.54492 12.5966 0.00501729 8.6827 0 4.60005C0 3.38007 0.45949 2.21006 1.27739 1.3474C2.09529 0.484749 3.20459 0.000114293 4.36128 0.000114293C4.60621 -0.00185348 4.85073 0.0215923 5.09132 0.0701132C5.3239 0.106413 5.55254 0.166701 5.77395 0.250111C5.92967 0.307739 6.06844 0.407242 6.17652 0.538779C6.28461 0.670316 6.35827 0.829331 6.39022 1.0001L7.68912 7.00001C7.72413 7.16287 7.71991 7.33239 7.67686 7.49309C7.6338 7.65379 7.55327 7.80056 7.44261 7.92C7.31936 8.06 7.30988 8.07 6.14371 8.70999C7.07759 10.8708 8.7161 12.6061 10.761 13.5999C11.3772 12.3599 11.3867 12.3499 11.5195 12.2199C11.6327 12.1032 11.7719 12.0183 11.9242 11.9729C12.0766 11.9275 12.2373 11.923 12.3917 11.9599L18.0803 13.3299C18.2371 13.3683 18.382 13.4481 18.5014 13.5618C18.6208 13.6755 18.7108 13.8194 18.763 13.9799C18.843 14.2173 18.9033 14.4615 18.9431 14.7099C18.9813 14.9612 19.0003 15.2154 19 15.4699C18.9825 16.6847 18.5101 17.8428 17.6859 18.6915C16.8617 19.5402 15.7526 20.0105 14.6008 19.9998Z" fill="white"/>
</svg>
