<svg width="29" height="39" viewBox="0 0 29 39" fill="none" xmlns="http://www.w3.org/2000/svg">
<path d="M9.97243 28.1137L11.0478 27.068L9.97243 28.1137ZM9.97243 10.9067L8.89708 9.8609L9.97243 10.9067ZM19.7534 36.6971L20.8288 37.7428L19.7534 36.6971ZM26.7254 28.1335L25.65 29.1793L26.7254 28.1335ZM26.7254 29.5279L27.8007 30.5736L26.7254 29.5279ZM26.7254 9.49252L25.65 10.5383L26.7254 9.49252ZM18.3196 2.32335L17.2443 1.27758L18.3196 2.32335ZM19.0173 18.813L17.9419 17.7673L19.0173 18.813ZM19.0173 20.2074L17.9419 21.2531L19.0173 20.2074ZM2.28359 18.813L1.20824 17.7673L2.28359 18.813ZM1.20824 21.2531L8.89709 29.1595L11.0478 27.068L3.35894 19.1616L1.20824 21.2531ZM8.89708 9.8609L1.20824 17.7673L3.35894 19.8588L11.0478 11.9524L8.89708 9.8609ZM11.0478 11.9524L19.395 3.36911L17.2443 1.27758L8.89708 9.8609L11.0478 11.9524ZM18.6781 3.36911L25.65 10.5383L27.8007 8.44676L20.8288 1.27758L18.6781 3.36911ZM25.65 9.84111L17.9419 17.7673L20.0926 19.8588L27.8007 11.9326L25.65 9.84111ZM27.8007 27.0878L20.0926 19.1616L17.9419 21.2531L25.65 29.1793L27.8007 27.0878ZM20.8288 37.7428L27.8007 30.5736L25.65 28.4821L18.6781 35.6513L20.8288 37.7428ZM8.89709 29.1595L17.2443 37.7428L19.395 35.6513L11.0478 27.068L8.89709 29.1595ZM18.6781 35.6513C18.8744 35.4494 19.1986 35.4494 19.395 35.6513L17.2443 37.7428C18.2259 38.7522 19.8471 38.7522 20.8288 37.7428L18.6781 35.6513ZM25.65 29.1793C25.4613 28.9852 25.4613 28.6762 25.65 28.4821L27.8007 30.5736C28.7444 29.6033 28.7444 28.0581 27.8007 27.0878L25.65 29.1793ZM25.65 10.5383C25.4613 10.3442 25.4613 10.0352 25.65 9.84111L27.8007 11.9326C28.7444 10.9623 28.7444 9.41712 27.8007 8.44676L25.65 10.5383ZM19.395 3.36911C19.1986 3.57099 18.8744 3.57099 18.6781 3.36911L20.8288 1.27758C19.8471 0.268172 18.2259 0.268173 17.2443 1.27758L19.395 3.36911ZM17.9419 17.7673C16.9983 18.7376 16.9983 20.2828 17.9419 21.2531L20.0926 19.1616C20.2814 19.3557 20.2814 19.6647 20.0926 19.8588L17.9419 17.7673ZM3.35894 19.1616C3.54767 19.3557 3.54767 19.6647 3.35894 19.8588L1.20824 17.7673C0.26457 18.7376 0.264571 20.2828 1.20824 21.2531L3.35894 19.1616Z" fill="#808080"/>
</svg>
