<svg width="51" height="50" viewBox="0 0 51 50" fill="none" xmlns="http://www.w3.org/2000/svg">
<g clip-path="url(#clip0_171_12182)">
<path fill-rule="evenodd" clip-rule="evenodd" d="M25.5 0C18.8696 0 12.5107 2.63392 7.82233 7.32233C3.13392 12.0107 0.5 18.3696 0.5 25C0.5 31.6304 3.13392 37.9893 7.82233 42.6777C12.5107 47.3661 18.8696 50 25.5 50C32.1304 50 38.4893 47.3661 43.1777 42.6777C47.8661 37.9893 50.5 31.6304 50.5 25C50.5 18.3696 47.8661 12.0107 43.1777 7.32233C38.4893 2.63392 32.1304 0 25.5 0ZM13.7558 17.3231H37.2635L25.5135 26.6442L13.7558 17.3231ZM12.0692 18.4423L24.925 28.6288C25.0948 28.763 25.3048 28.836 25.5212 28.836C25.7375 28.836 25.9475 28.763 26.1173 28.6288L38.9346 18.45V32.6769H12.0692V18.4423Z" fill="#1A1A1A"/>
</g>
<defs>
<clipPath id="clip0_171_12182">
<rect width="50" height="50" fill="white" transform="translate(0.5)"/>
</clipPath>
</defs>
</svg>
