<svg width="20" height="21" viewBox="0 0 20 21" fill="none" xmlns="http://www.w3.org/2000/svg">
<path fill-rule="evenodd" clip-rule="evenodd" d="M9.98018 20.5C15.4922 20.5 19.9604 16.023 19.9604 10.5C19.9604 4.977 15.4922 0.5 9.98018 0.5C4.46813 0.5 0 4.977 0 10.5C0 16.023 4.46813 20.5 9.98018 20.5ZM10.9782 5.5C10.9782 5.23478 10.8731 4.98043 10.6859 4.79289C10.4987 4.60536 10.2449 4.5 9.98018 4.5C9.71549 4.5 9.46164 4.60536 9.27448 4.79289C9.08731 4.98043 8.98217 5.23478 8.98217 5.5V10.086C8.98228 10.6164 9.19265 11.125 9.56701 11.5L12.2686 14.207C12.4569 14.3892 12.709 14.49 12.9706 14.4877C13.2323 14.4854 13.4826 14.3802 13.6677 14.1948C13.8527 14.0094 13.9577 13.7586 13.96 13.4964C13.9622 13.2342 13.8616 12.9816 13.6798 12.793L10.9782 10.086V5.5Z" fill="black"/>
</svg>
