<svg width="92" height="93" viewBox="0 0 92 93" fill="none" xmlns="http://www.w3.org/2000/svg">
<path fill-rule="evenodd" clip-rule="evenodd" d="M20.7386 5.53826C21.9154 5.83559 23.0432 6.29735 24.0877 6.90954L28.2801 3.91249L31.6346 7.22468L28.5992 11.3641C29.2191 12.3956 29.6866 13.5091 29.9879 14.6709L35.0971 15.4785V20.1627L29.9881 20.9701C29.6869 22.1321 29.2192 23.2457 28.5992 24.2771L31.6346 28.4166L28.2801 31.7288L24.0877 28.7317C23.0431 29.3437 21.9154 29.8054 20.7386 30.1028L19.9209 35.1476H15.1766L14.3589 30.103C13.182 29.8057 12.0542 29.3439 11.0096 28.7317L6.81726 31.7288L3.46254 28.4166L6.49791 24.2771C5.87809 23.2457 5.4105 22.1322 5.10928 20.9703L0 20.1627V15.4785L5.10928 14.6709C5.41039 13.509 5.87798 12.3955 6.49791 11.3641L3.46273 7.22468L6.81745 3.91249L11.0096 6.90935C12.0543 6.29716 13.1822 5.83541 14.3591 5.53807L15.1766 0.493652H19.9207L20.7386 5.53826ZM1.92101 86.101C0.8863 86.101 0.0424552 86.9341 0.0424552 87.9558V90.6388C0.0424552 91.6605 0.8863 92.4937 1.92101 92.4937H90.1214C91.1561 92.4937 91.9999 91.6605 91.9999 90.6388V87.9558C91.9999 86.9341 91.1561 86.101 90.1214 86.101H86.0308V28.8254C86.0308 27.8039 85.187 26.9705 84.1523 26.9705H75.7308C74.6961 26.9705 73.8522 27.8037 73.8522 28.8254V86.101H63.4176V40.179C63.4176 39.1574 62.5736 38.3242 61.5391 38.3242H53.1175C52.083 38.3242 51.239 39.1576 51.239 40.179V86.101H40.804V52.8001C40.804 51.7785 39.9601 50.9453 38.9254 50.9453H30.5037C29.469 50.9453 28.6252 51.7785 28.6252 52.8001V86.101H18.19V64.8868C18.19 63.8653 17.3462 63.032 16.3115 63.032H7.88991C6.85521 63.032 6.01136 63.8651 6.01136 64.8868V86.1011H1.92101V86.101ZM3.3442 54.8955C16.7828 50.2746 30.6281 44.3363 44.3308 36.6248C57.1874 29.3894 69.9161 20.597 82.0635 9.87209L81.2618 15.3092C81.2098 15.6962 81.3147 16.0879 81.5536 16.399C81.7925 16.7101 82.1461 16.9154 82.5376 16.9704C82.9291 17.0254 83.3267 16.9256 83.644 16.6927C83.9614 16.4597 84.1727 16.1125 84.2321 15.7265L85.6375 6.19617L85.6364 6.19598C85.6675 5.97981 85.6498 5.75952 85.5845 5.5509C85.5193 5.34227 85.4081 5.15049 85.259 4.98928C85.1098 4.82808 84.9264 4.70146 84.7218 4.61849C84.5173 4.53552 84.2967 4.49826 84.0758 4.50938L74.3361 5.03133C73.9427 5.05615 73.575 5.23299 73.3127 5.52357C73.0503 5.81414 72.9145 6.19504 72.9346 6.58379C72.9546 6.97254 73.129 7.33784 73.4198 7.60059C73.7107 7.86333 74.0947 8.00236 74.4887 7.98757L80.0341 7.69043C68.0573 18.261 55.5147 26.9247 42.8511 34.0514C29.3142 41.6696 15.6356 47.5363 2.35758 52.1019C2.16925 52.1639 1.99526 52.2622 1.84573 52.3911C1.6962 52.5201 1.57411 52.677 1.48654 52.8529C1.39898 53.0289 1.34769 53.2202 1.33566 53.4158C1.32363 53.6115 1.3511 53.8075 1.41646 53.9926C1.48183 54.1777 1.58379 54.3481 1.71642 54.4939C1.84906 54.6398 2.00972 54.7581 2.18908 54.8422C2.36844 54.9262 2.56292 54.9741 2.76121 54.9833C2.95951 54.9925 3.15768 54.9626 3.3442 54.8955ZM17.5487 10.8995C13.6774 10.8995 10.539 13.9982 10.539 17.8206C10.539 21.6431 13.6774 24.7418 17.5487 24.7418C21.42 24.7418 24.5583 21.6431 24.5583 17.8206C24.5583 13.9982 21.42 10.8995 17.5487 10.8995Z" fill="url(#paint0_linear_57_1196)"/>
<defs>
<linearGradient id="paint0_linear_57_1196" x1="-2.4098e-08" y1="0.536485" x2="97.7519" y2="85.9539" gradientUnits="userSpaceOnUse">
<stop stop-color="#62B2AC"/>
<stop offset="1" stop-color="#71CDC6"/>
</linearGradient>
</defs>
</svg>
