<svg width="92" height="87" viewBox="0 0 92 87" fill="none" xmlns="http://www.w3.org/2000/svg">
<path d="M32.6022 0.959961C23.9615 0.966084 15.6761 4.39569 9.56404 10.4963C3.45194 16.5969 0.012276 24.8702 0 33.5008C0.0122637 42.1336 3.45119 50.4092 9.56262 56.5135C15.6741 62.6178 23.9593 66.0526 32.6022 66.0649C41.243 66.0496 49.5254 62.6134 55.6343 56.5094C61.7433 50.4055 65.1804 42.1315 65.1927 33.5008C65.1927 15.5576 50.5664 0.959961 32.6022 0.959961ZM45.2467 13.578C45.6517 13.579 46.0523 13.6615 46.4247 13.8207C46.7971 13.9798 47.1336 14.2122 47.414 14.5042L51.6326 18.7295C51.9127 19.0107 52.1346 19.3444 52.2856 19.7112C52.4365 20.0781 52.5137 20.471 52.5126 20.8677C52.5116 21.2644 52.4322 21.657 52.2792 22.023C52.1262 22.3891 51.9027 22.7214 51.6211 23.0012C51.3396 23.2809 51.0055 23.5024 50.6382 23.6532C50.2709 23.804 49.8775 23.8811 49.4804 23.88C49.0833 23.879 48.6901 23.7998 48.3237 23.647C47.9572 23.4942 47.6245 23.2708 47.3445 22.9896L43.1258 18.7758C42.6839 18.3591 42.3785 17.8185 42.2497 17.2252C42.1209 16.6319 42.1747 16.0137 42.4041 15.4515C42.6335 14.8893 43.0277 14.4095 43.535 14.0752C44.0423 13.7409 44.639 13.5676 45.2467 13.578ZM32.6022 19.945C40.066 19.945 46.1854 26.0457 46.1854 33.5008C46.1854 40.9559 40.066 47.0798 32.6022 47.0798C29.0004 47.0676 25.5495 45.633 23.0026 43.0891C20.4557 40.5452 19.0195 37.0984 19.0073 33.5008C19.0073 26.0457 25.1383 19.945 32.6022 19.945ZM15.6578 41.0138C16.0628 41.0148 16.4636 41.0973 16.836 41.2564C17.2083 41.4156 17.5448 41.648 17.8252 41.9399L22.0671 46.1421C22.6357 46.7101 22.9552 47.4804 22.9552 48.2837C22.9552 49.0869 22.6357 49.8574 22.0671 50.4254C21.4984 50.9933 20.7272 51.3124 19.923 51.3124C19.1188 51.3124 18.3474 50.9933 17.7787 50.4254L13.5717 46.2115C13.1321 45.7967 12.8277 45.2595 12.6979 44.6696C12.5682 44.0796 12.619 43.4642 12.844 42.9036C13.069 42.3429 13.4577 41.8629 13.9596 41.5259C14.4614 41.1889 15.0531 41.0104 15.6578 41.0138ZM73.9314 51.1315C73.1342 51.1467 72.3756 51.4769 71.8216 52.0497C71.2677 52.6226 70.9637 53.3913 70.9761 54.1876V57.5216C69.8983 57.7994 68.8898 58.2393 67.9626 58.795L65.5752 56.4218C65.2944 56.1421 64.9612 55.9203 64.5946 55.7692C64.228 55.6181 63.8351 55.5407 63.4386 55.5412C63.042 55.5417 62.6494 55.6203 62.2832 55.7724C61.917 55.9245 61.5844 56.1471 61.3044 56.4276C61.0243 56.7081 60.8024 57.041 60.6511 57.4071C60.4998 57.7733 60.4223 58.1656 60.4228 58.5617C60.4233 58.9579 60.5018 59.35 60.6541 59.7157C60.8064 60.0815 61.0294 60.4137 61.3102 60.6934L63.7208 63.1013C63.1877 64.0274 62.7704 65.0114 62.4923 66.0649H59.0733C54.9589 65.9723 54.9589 72.2002 59.0733 72.096H62.5734C62.8632 73.1379 63.2688 74.0987 63.8135 74.9901L61.3102 77.4906C58.3316 80.3268 62.7125 84.7258 65.5752 81.7739L68.125 79.2271C69.0174 79.7364 69.9678 80.13 70.9761 80.3963V84.008C71.0688 87.9439 76.9332 87.9439 77.0144 84.008V80.3963C78.0227 80.13 78.973 79.7249 79.8538 79.2155L82.4036 81.7739C85.2547 84.5059 89.4155 80.35 86.6803 77.4906L84.1653 74.9785C84.6985 74.0872 85.104 73.1263 85.3937 72.096H88.9055C93.0315 72.1887 93.0315 65.9607 88.9055 66.0649H85.4749C85.2058 65.0301 84.7965 64.0368 84.258 63.1129L86.6803 60.6819C87.2458 60.1139 87.5624 59.3447 87.5602 58.5436C87.5581 57.7425 87.2372 56.9752 86.6686 56.4103C86.0999 55.8453 85.3299 55.5291 84.5279 55.5313C83.7258 55.5335 82.9577 55.8538 82.3921 56.4218L80.0276 58.795C79.0876 58.2323 78.0733 57.8036 77.0144 57.5216V54.1876C77.0207 53.7826 76.945 53.3804 76.7921 53.0052C76.6391 52.63 76.412 52.2895 76.1241 52.0042C75.8363 51.7188 75.4936 51.4945 75.1168 51.3445C74.74 51.1945 74.3369 51.1221 73.9314 51.1315ZM73.9779 63.1245C77.6982 63.1245 79.8306 65.9375 79.8306 68.9589C79.8384 69.7288 79.6923 70.4924 79.4009 71.2052C79.1095 71.9179 78.6787 72.5655 78.1336 73.1099C77.5886 73.6543 76.9403 74.0846 76.2267 74.3757C75.5131 74.6667 74.7487 74.8126 73.9779 74.8049C73.2081 74.8111 72.4447 74.6641 71.7325 74.3723C71.0202 74.0806 70.3732 73.65 69.8294 73.1057C69.2856 72.5615 68.8558 71.9145 68.5652 71.2025C68.2745 70.4905 68.1288 69.7278 68.1365 68.9589C68.1365 65.2198 70.6169 63.1245 73.9779 63.1245Z" fill="url(#paint0_linear_57_1181)"/>
<defs>
<linearGradient id="paint0_linear_57_1181" x1="-2.4098e-08" y1="1" x2="92" y2="87" gradientUnits="userSpaceOnUse">
<stop stop-color="#62B2AC"/>
<stop offset="1" stop-color="#71CDC6"/>
</linearGradient>
</defs>
</svg>
