<svg width="92" height="86" viewBox="0 0 92 86" fill="none" xmlns="http://www.w3.org/2000/svg">
<path fill-rule="evenodd" clip-rule="evenodd" d="M66.6968 25.177L81.0843 29.8846L91.8543 19.1827C92.2891 22.9002 91.7494 26.6663 90.2876 30.1154C88.8257 33.5645 86.4914 36.5795 83.5111 38.8679C80.5309 41.1562 77.0059 42.6402 73.2783 43.1757C69.5508 43.7113 65.7471 43.2802 62.2367 41.9243L57.6738 46.4584L55.7726 44.5692C55.1489 43.9756 54.3187 43.6443 53.4551 43.6443C52.5916 43.6443 51.7614 43.9756 51.1377 44.5692L49.6065 46.0805L41.3851 37.9111L49.7915 29.5476C48.4314 26.0588 48.0023 22.2799 48.5456 18.5776C49.089 14.8754 50.5865 11.3757 52.8927 8.41817C55.1989 5.46068 58.2354 3.14593 61.7075 1.69863C65.1796 0.251332 68.9693 -0.279338 72.7087 0.158139L61.9592 10.8805L66.6968 25.177ZM42.5258 53.1879L40.9945 54.6993C40.3827 55.3114 40.0393 56.1392 40.0393 57.002C40.0393 57.8648 40.3827 58.6926 40.9945 59.3048L42.906 61.194L20.9857 82.9757C19.3312 84.6197 17.0874 85.5432 14.7477 85.5432C12.4079 85.5432 10.1641 84.6197 8.50965 82.9757C6.85523 81.3317 5.92578 79.1021 5.92578 76.7771C5.92578 74.4522 6.85523 72.2225 8.50965 70.5786L34.3044 45.0185L42.5258 53.1879ZM16.7548 79.4991C17.532 79.346 18.2462 78.9673 18.807 78.411C19.5575 77.6626 19.979 76.6491 19.979 75.5926C19.979 74.536 19.5575 73.5225 18.807 72.7741C18.2462 72.2178 17.532 71.8392 16.7548 71.686C15.9775 71.5329 15.1719 71.6121 14.44 71.9138C13.708 72.2154 13.0824 72.7259 12.6423 73.3806C12.2022 74.0354 11.9673 74.8052 11.9673 75.5926C11.9673 76.38 12.2022 77.1497 12.6423 77.8045C13.0824 78.4593 13.708 78.9698 14.44 79.2714C15.1719 79.573 15.9775 79.6523 16.7548 79.4991ZM52.5822 44.8821C52.8539 44.77 53.1451 44.7123 53.4393 44.7124C53.735 44.7115 54.0281 44.7688 54.3015 44.8809C54.5749 44.9931 54.8232 45.158 55.0322 45.366L56.9436 47.2654L80.4775 70.6504C81.1455 71.3142 81.6755 72.1022 82.0371 72.9695C82.3986 73.8368 82.5847 74.7664 82.5847 75.7052C82.5847 76.644 82.3986 77.5736 82.0371 78.4409C81.6755 79.3082 81.1455 80.0962 80.4775 80.76L77.3019 83.9155C76.6339 84.5793 75.8409 85.1059 74.968 85.4652C74.0952 85.8245 73.1597 86.0094 72.2149 86.0094C71.2702 86.0094 70.3347 85.8245 69.4618 85.4652C68.589 85.1059 67.7959 84.5793 67.1279 83.9155L43.5838 60.5305L41.6826 58.6311C41.2628 58.212 41.0271 57.6447 41.0271 57.0534C41.0271 56.462 41.2628 55.8948 41.6826 55.4757L51.8566 45.366C52.064 45.1587 52.3106 44.9943 52.5822 44.8821ZM40.6858 38.6671L48.9072 46.8365L43.1316 52.4223L34.9102 44.2529L15.3843 24.8505C15.3252 24.7958 15.2552 24.754 15.1788 24.728L8.22142 22.5427L0 9.66561L5.87832 3.98786L18.8271 12.1573L21.0263 19.0604C21.052 19.139 21.0981 19.2095 21.1599 19.2647L40.6858 38.6671Z" fill="url(#paint0_linear_57_1183)"/>
<defs>
<linearGradient id="paint0_linear_57_1183" x1="-2.40981e-08" y1="0.0493165" x2="92.0002" y2="86.0497" gradientUnits="userSpaceOnUse">
<stop stop-color="#62B2AC"/>
<stop offset="1" stop-color="#71CDC6"/>
</linearGradient>
</defs>
</svg>
