<svg width="92" height="93" viewBox="0 0 92 93" fill="none" xmlns="http://www.w3.org/2000/svg">
<path fill-rule="evenodd" clip-rule="evenodd" d="M46 0.131348L0 28.1313L4 36.1313L46 10.1313L87.9999 36.1313L91.9999 28.1313L46 0.131348ZM68 42.1314H24V46.1314H68V42.1314ZM7.41421 83.5457C7.78928 83.1706 7.99999 82.6619 7.99999 82.1315V80.1315H12V92.1315H0V80.1315H4V82.1315C4 82.6619 4.21071 83.1706 4.58578 83.5457C4.96085 83.9208 5.46956 84.1315 5.99999 84.1315C6.53043 84.1315 7.03913 83.9208 7.41421 83.5457ZM63.9999 50.1313H27.9999V54.1313H63.9999V50.1313ZM27.9999 58.1312H63.9999V62.1312H27.9999V58.1312ZM48 68.1312C48 68.6616 47.7892 69.1703 47.4142 69.5454C47.0391 69.9205 46.5304 70.1312 46 70.1312C45.4695 70.1312 44.9608 69.9205 44.5858 69.5454C44.2107 69.1703 44 68.6616 44 68.1312V66.1312H28V76.1312H32V92.1312H64V66.1312H48V68.1312ZM24 82.1312C24 82.6616 23.7893 83.1703 23.4142 83.5454C23.0391 83.9204 22.5304 84.1312 22 84.1312C21.4696 84.1312 20.9608 83.9204 20.5858 83.5454C20.2107 83.1703 20 82.6616 20 82.1312V80.1312H16V92.1312H28V80.1312H24V82.1312ZM7.99999 66.1312C7.99999 66.6616 7.78928 67.1703 7.41421 67.5454C7.03913 67.9205 6.53043 68.1312 6 68.1312C5.46956 68.1312 4.96086 67.9205 4.58578 67.5454C4.21071 67.1703 4 66.6616 4 66.1312V64.1312H0V76.1312H12V64.1312H7.99999V66.1312ZM9.9999 37.1113L45.9999 14.8313L81.9998 37.1113V92.1313H67.9999V50.1313H69.9999C70.5303 50.1313 71.039 49.9206 71.4141 49.5455C71.7891 49.1704 71.9999 48.6617 71.9999 48.1313V40.1313C71.9999 39.6009 71.7891 39.0922 71.4141 38.7171C71.039 38.342 70.5303 38.1313 69.9999 38.1313H21.9999C21.4695 38.1313 20.9607 38.342 20.5857 38.7171C20.2106 39.0922 19.9999 39.6009 19.9999 40.1313V48.1313C19.9999 48.6617 20.2106 49.1704 20.5857 49.5455C20.9607 49.9206 21.4695 50.1313 21.9999 50.1313H23.9999V76.1313H15.9999V60.1313H9.9999V37.1113Z" fill="url(#paint0_linear_57_1187)"/>
<defs>
<linearGradient id="paint0_linear_57_1187" x1="-2.4098e-08" y1="0.17418" x2="97.752" y2="85.5916" gradientUnits="userSpaceOnUse">
<stop stop-color="#62B2AC"/>
<stop offset="1" stop-color="#71CDC6"/>
</linearGradient>
</defs>
</svg>
