<svg width="22" height="19" viewBox="0 0 22 19" fill="none" xmlns="http://www.w3.org/2000/svg">
<path d="M21.5601 14.2997L13.8901 1.57969C13.58 1.09451 13.1527 0.695217 12.6476 0.418632C12.1425 0.142046 11.5759 -0.00292969 11.0001 -0.00292969C10.4243 -0.00292969 9.85769 0.142046 9.35262 0.418632C8.84755 0.695217 8.42024 1.09451 8.1101 1.57969L0.4401 14.2997C0.169154 14.7513 0.021889 15.2664 0.013112 15.793C0.00433502 16.3196 0.134355 16.8393 0.3901 17.2997C0.685779 17.818 1.11376 18.2484 1.6303 18.5471C2.14684 18.8458 2.73343 19.002 3.3301 18.9997H18.6701C19.2629 19.006 19.8468 18.8559 20.363 18.5644C20.8792 18.273 21.3093 17.8505 21.6101 17.3397C21.8734 16.8745 22.0075 16.3474 21.9987 15.8129C21.9899 15.2784 21.8385 14.756 21.5601 14.2997ZM11.0001 14.9997C10.8023 14.9997 10.609 14.941 10.4445 14.8312C10.2801 14.7213 10.1519 14.5651 10.0762 14.3824C10.0005 14.1997 9.98073 13.9986 10.0193 13.8046C10.0579 13.6106 10.1531 13.4324 10.293 13.2926C10.4328 13.1527 10.611 13.0575 10.805 13.0189C10.999 12.9803 11.2001 13.0001 11.3828 13.0758C11.5655 13.1515 11.7217 13.2797 11.8316 13.4441C11.9415 13.6086 12.0001 13.8019 12.0001 13.9997C12.0001 14.2649 11.8947 14.5193 11.7072 14.7068C11.5197 14.8943 11.2653 14.9997 11.0001 14.9997ZM12.0001 10.9997C12.0001 11.2649 11.8947 11.5193 11.7072 11.7068C11.5197 11.8943 11.2653 11.9997 11.0001 11.9997C10.7349 11.9997 10.4805 11.8943 10.293 11.7068C10.1055 11.5193 10.0001 11.2649 10.0001 10.9997V6.99969C10.0001 6.73448 10.1055 6.48012 10.293 6.29259C10.4805 6.10505 10.7349 5.99969 11.0001 5.99969C11.2653 5.99969 11.5197 6.10505 11.7072 6.29259C11.8947 6.48012 12.0001 6.73448 12.0001 6.99969V10.9997Z" fill="#E1670F"/>
</svg>
