<svg width="50" height="50" viewBox="0 0 50 50" fill="none" xmlns="http://www.w3.org/2000/svg">
<path d="M47.5 30C46.837 30 46.2011 30.2634 45.7322 30.7322C45.2634 31.2011 45 31.837 45 32.5V42.5C45 43.163 44.7366 43.7989 44.2678 44.2678C43.7989 44.7366 43.163 45 42.5 45H7.5C6.83696 45 6.20107 44.7366 5.73223 44.2678C5.26339 43.7989 5 43.163 5 42.5V32.5C5 31.837 4.73661 31.2011 4.26777 30.7322C3.79893 30.2634 3.16304 30 2.5 30C1.83696 30 1.20107 30.2634 0.732233 30.7322C0.263392 31.2011 0 31.837 0 32.5V42.5C0 44.4891 0.790177 46.3968 2.1967 47.8033C3.60322 49.2098 5.51088 50 7.5 50H42.5C44.4891 50 46.3968 49.2098 47.8033 47.8033C49.2098 46.3968 50 44.4891 50 42.5V32.5C50 31.837 49.7366 31.2011 49.2678 30.7322C48.7989 30.2634 48.163 30 47.5 30ZM23.225 34.275C23.4628 34.5026 23.7431 34.681 24.05 34.8C24.3493 34.9323 24.6728 35.0006 25 35.0006C25.3272 35.0006 25.6507 34.9323 25.95 34.8C26.2569 34.681 26.5372 34.5026 26.775 34.275L36.775 24.275C37.2458 23.8042 37.5102 23.1658 37.5102 22.5C37.5102 21.8342 37.2458 21.1958 36.775 20.725C36.3042 20.2542 35.6658 19.9898 35 19.9898C34.3342 19.9898 33.6958 20.2542 33.225 20.725L27.5 26.475V2.5C27.5 1.83696 27.2366 1.20107 26.7678 0.732233C26.2989 0.263392 25.663 0 25 0C24.337 0 23.7011 0.263392 23.2322 0.732233C22.7634 1.20107 22.5 1.83696 22.5 2.5V26.475L16.775 20.725C16.5419 20.4919 16.2652 20.307 15.9606 20.1809C15.6561 20.0547 15.3296 19.9898 15 19.9898C14.6704 19.9898 14.3439 20.0547 14.0394 20.1809C13.7348 20.307 13.4581 20.4919 13.225 20.725C12.9919 20.9581 12.807 21.2348 12.6809 21.5394C12.5547 21.8439 12.4898 22.1704 12.4898 22.5C12.4898 22.8296 12.5547 23.1561 12.6809 23.4606C12.807 23.7652 12.9919 24.0419 13.225 24.275L23.225 34.275Z" fill="white"/>
</svg>
