<svg width="18" height="25" viewBox="0 0 18 25" fill="none" xmlns="http://www.w3.org/2000/svg">
<path fill-rule="evenodd" clip-rule="evenodd" d="M7.05741 0.489625C3.6574 1.17861 0.936788 3.78739 0.170572 7.09349C-0.105253 8.28381 -0.0413785 10.0503 0.324647 11.3568C1.13983 14.2659 3.095 17.6905 6.18822 21.6267C7.30865 23.0525 8.87796 24.8636 8.99303 24.8636C9.23857 24.8636 12.3327 21.0431 13.7864 18.9448C17.5076 13.5737 18.7216 9.53858 17.5964 6.28095C16.5864 3.3568 14.0503 1.14735 10.9527 0.492862C9.85574 0.261105 8.19217 0.259718 7.05741 0.489625ZM10.3779 6.13409C10.9677 6.40349 11.6101 7.01451 11.9058 7.58733C12.0986 7.96086 12.1354 8.17274 12.1354 8.91064C12.1354 9.64503 12.0983 9.86106 11.9091 10.2272C11.6104 10.8055 11.0539 11.3417 10.4238 11.6583C9.9681 11.8874 9.81228 11.9152 8.99303 11.9144C7.90908 11.9132 7.40718 11.7272 6.72255 11.073C6.13528 10.5119 5.87475 9.95197 5.81978 9.13232C5.7227 7.68731 6.5316 6.48829 7.92844 6.00684C8.55548 5.79062 9.76341 5.85341 10.3779 6.13409Z" fill="black"/>
</svg>
