<svg width="24" height="18" viewBox="0 0 24 18" fill="none" xmlns="http://www.w3.org/2000/svg">
<path fill-rule="evenodd" clip-rule="evenodd" d="M22.9543 0.798754L12 7.86658L1.04569 0.798754C1.4861 0.466983 2.02089 0.285929 2.5714 0.282227H21.4285C21.9791 0.285929 22.5139 0.466983 22.9543 0.798754ZM12.3171 9.683L12.4629 9.61413L23.9143 2.22778C23.9692 2.43572 23.998 2.64972 24 2.86483V14.9171C24 15.6021 23.7291 16.259 23.2468 16.7433C22.7646 17.2277 22.1106 17.4998 21.4286 17.4998H2.57143C1.88944 17.4998 1.23539 17.2277 0.753154 16.7433C0.270918 16.259 0 15.6021 0 14.9171V2.86483C0.00204403 2.64972 0.0308384 2.43572 0.0857142 2.22778L11.5714 9.683L11.7171 9.75187H11.7857C11.8569 9.76087 11.9289 9.76087 12 9.75187C12.0858 9.74163 12.1696 9.71841 12.2486 9.683H12.3171Z" fill="white"/>
</svg>
