<svg width="20" height="21" viewBox="0 0 20 21" fill="none" xmlns="http://www.w3.org/2000/svg">
<path d="M15.3693 20.4998C11.2947 20.4945 7.38854 18.8704 4.50738 15.9835C1.62623 13.0966 0.00528135 9.1827 0 5.10005C0 3.88007 0.483674 2.71006 1.34462 1.8474C2.20556 0.984749 3.37326 0.500114 4.59082 0.500114C4.84864 0.498147 5.10604 0.521592 5.35928 0.570113C5.6041 0.606413 5.84478 0.666701 6.07784 0.750111C6.24176 0.807739 6.38783 0.907242 6.5016 1.03878C6.61538 1.17032 6.69291 1.32933 6.72655 1.5001L8.09381 7.50001C8.13066 7.66287 8.12623 7.83239 8.0809 7.99309C8.03557 8.15379 7.95081 8.30056 7.83433 8.42C7.70459 8.56 7.69461 8.57 6.46706 9.20999C7.45009 11.3708 9.17485 13.1061 11.3273 14.0999C11.976 12.8599 11.986 12.8499 12.1257 12.7199C12.245 12.6032 12.3914 12.5183 12.5518 12.4729C12.7122 12.4275 12.8814 12.423 13.0439 12.4599L19.0319 13.8299C19.1969 13.8683 19.3494 13.9481 19.4751 14.0618C19.6008 14.1755 19.6956 14.3194 19.7505 14.4799C19.8347 14.7173 19.8982 14.9615 19.9401 15.2099C19.9803 15.4612 20.0003 15.7154 20 15.9699C19.9816 17.1847 19.4843 18.3428 18.6167 19.1915C17.7491 20.0402 16.5817 20.5105 15.3693 20.4998Z" fill="black"/>
</svg>
